<?xml version="1.0" encoding="utf-8"?>
<!-- Generator: Adobe Illustrator 24.2.2, SVG Export Plug-In . SVG Version: 6.00 Build 0)  -->
<svg version="1.1" id="Clearspace_Guide" xmlns="http://www.w3.org/2000/svg" xmlns:xlink="http://www.w3.org/1999/xlink" x="0px"
	 y="0px" viewBox="0 0 752.7 1000" style="enable-background:new 0 0 752.7 1000;" xml:space="preserve">
<style type="text/css">
	.st0{fill:#000000;}
</style>
<g>
	<g>
		<path class="st0" d="M238.7,265.5v-16.3c0-10.4-4.6-19.1-10.6-25.8c5.2-6.5,9.3-14.7,9.3-23.6v-12.6c0-19.9-15.8-35.5-37.5-35.5
			h-47.2v151.7h46.6C219.9,303.4,238.7,288.2,238.7,265.5z M178.9,177.1h21.2c6.3,0,11.5,4.8,11.5,10.6v13c0,5.9-5.2,10.6-11.5,10.6
			h-21.2V177.1z M178.9,236.7h20.3c9.1,0,13,8.5,13,12.8v16c0,6.7-5.6,12.6-13,12.6h-20.3V236.7z"/>
		<polygon class="st0" points="238.7,459.7 178.7,459.7 178.7,333.4 152.7,333.4 152.7,485.1 238.7,485.1 		"/>
		<polygon class="st0" points="214.3,696.6 178.9,752.1 178.9,696.6 152.7,696.6 152.7,848.3 178.9,848.3 178.9,786.4 213.8,848.3 
			244.3,848.3 199.2,769 244.5,696.6 		"/>
		<path class="st0" d="M238.7,551.7c0-20.4-16.3-36.6-36.6-36.6h-49.4v151.7h26v-51.5H195l20.8,51.5h28.6l-23.7-56.6
			c10.9-6.4,18-18.1,18-31.6L238.7,551.7L238.7,551.7z M178.6,589.9v-49.5h0.1h22.9c5.9,0,10.6,4.5,10.6,10.2v29.1
			c0,5.6-4.8,10.2-10.6,10.2H178.6z"/>
		<polygon class="st0" points="299.6,781.8 353.8,781.8 353.8,756.4 299.6,756.4 299.6,722 358.3,722 358.3,696.6 273.8,696.6 
			273.8,848.3 359.9,848.3 359.9,823 299.6,823 		"/>
		<path class="st0" d="M316.4,512.8c-23.4,0-42.3,19.3-42.3,42.5v70.9c0,23.2,18.9,42.7,42.3,42.7h1.4c23.4,0,42-19.3,42-42.5v-71.1
			c0-23.2-18.6-42.5-42-42.5L316.4,512.8L316.4,512.8z M334.1,554v73.7c0,8.9-7.8,15.8-16.9,15.8H317c-9.1,0-16.9-7.2-16.9-16V554
			c0-8.9,7.8-15.8,16.9-15.8h0.3C326.3,538.2,334.1,545.1,334.1,554z"/>
		<path class="st0" d="M333.7,263.8c0,9.1-7.6,16.5-16.7,16.5h-0.3c-9.3,0-16.9-7.6-16.9-16.7V151.7h-26v111.2
			c0,23.2,18.6,42.7,42.2,42.7h1.6c23.6,0,42.3-19.3,42.3-42.5V151.7h-26.2V263.8z"/>
		<path class="st0" d="M359.9,442.8v-67.2c0-23.4-18.9-42.3-42.3-42.3h-43.8V485h43.8C341,485.1,359.9,466.2,359.9,442.8z
			 M299.8,459.7v-101H317c9.1,0,16,7.2,16,16v69.1c0,8.9-6.9,15.8-16,15.8h-17.2V459.7z"/>
		<path class="st0" d="M438.2,538.2c0,0,0.5,0,0.6,0c8.9,0,16.3,7.8,16.3,19.5h26c0-26.7-18.2-44.9-42-44.9h-1.3
			c-23.6,0-42.7,19.3-42.7,42.5v70.9c0,23.2,19.1,42.7,42.7,42.7h1.3c23.8,0,42-19.3,42-42.5v-6.9h-26v8.2c0,8.9-7.4,15.8-16.3,15.8
			h-0.5c-9.5,0-16.6-7.2-16.6-16V554C421.6,545.2,428.7,538.2,438.2,538.2z"/>
		<polygon class="st0" points="394.9,722 424.6,722 424.6,848.3 451.1,848.3 451.1,722 481,722 481,696.6 394.9,696.6 		"/>
		<path class="st0" d="M579.6,333.4h-41.1L516,418.7V485h25.5v-45h35v45.1H602v-66.3L579.6,333.4z M543.9,414.6l13-55.9h4.3l13,55.9
			H543.9z"/>
		<rect x="516" y="823" class="st0" width="86" height="25.2"/>
		<polygon class="st0" points="477.8,279.1 451.3,279.1 451.3,176 477.8,176 477.8,151.7 398.1,151.7 398.1,176 424.8,176 
			424.8,279.1 398.1,279.1 398.1,303.4 477.8,303.4 		"/>
	</g>
</g>
</svg>
